Saira-PARAMETRIC-JUN_XTRA510.ufo
<glyph name="percent" format="2">
  <advance width="825.97826"/>
  <unicode hex="0025"/>
  <outline>
    <contour>
      <point x="156.348" y="0" type="line"/>
      <point x="220.63" y="0" type="line"/>
      <point x="669.63" y="688" type="line"/>
      <point x="605.348" y="688" type="line"/>
    </contour>
    <contour>
      <point x="197.63" y="311" type="curve" smooth="yes"/>
      <point x="330.783" y="311"/>
      <point x="338.065" y="347.522"/>
      <point x="338.065" y="503" type="curve" smooth="yes"/>
      <point x="338.065" y="657.935"/>
      <point x="330.783" y="696"/>
      <point x="197.63" y="696" type="curve" smooth="yes"/>
      <point x="64.478" y="696"/>
      <point x="56.196" y="657.935"/>
      <point x="56.196" y="503" type="curve" smooth="yes"/>
      <point x="56.196" y="347.522"/>
      <point x="64.478" y="311"/>
    </contour>
    <contour>
      <point x="197.63" y="361.304" type="curve" smooth="yes"/>
      <point x="119.587" y="361.304"/>
      <point x="114.478" y="363.761"/>
      <point x="114.478" y="503" type="curve" smooth="yes"/>
      <point x="114.478" y="642.152"/>
      <point x="119.587" y="645.152"/>
      <point x="197.63" y="645.152" type="curve" smooth="yes"/>
      <point x="278.326" y="645.152"/>
      <point x="280.239" y="642.152"/>
      <point x="280.239" y="503" type="curve" smooth="yes"/>
      <point x="280.239" y="363.761"/>
      <point x="275.13" y="361.304"/>
    </contour>
    <contour>
      <point x="629.348" y="-8" type="curve" smooth="yes"/>
      <point x="762.5" y="-8"/>
      <point x="770.326" y="28.522"/>
      <point x="770.326" y="184" type="curve" smooth="yes"/>
      <point x="770.326" y="338.935"/>
      <point x="762.5" y="377"/>
      <point x="629.348" y="377" type="curve" smooth="yes"/>
      <point x="496.196" y="377"/>
      <point x="487.913" y="338.935"/>
      <point x="487.913" y="184" type="curve" smooth="yes"/>
      <point x="487.913" y="28.522"/>
      <point x="496.196" y="-8"/>
    </contour>
    <contour>
      <point x="629.348" y="42.304" type="curve" smooth="yes"/>
      <point x="551.848" y="42.304"/>
      <point x="546.739" y="44.761"/>
      <point x="546.739" y="184" type="curve" smooth="yes"/>
      <point x="546.739" y="323.152"/>
      <point x="551.848" y="326.152"/>
      <point x="629.348" y="326.152" type="curve" smooth="yes"/>
      <point x="710.587" y="326.152"/>
      <point x="711.957" y="323.152"/>
      <point x="711.957" y="184" type="curve" smooth="yes"/>
      <point x="711.957" y="44.761"/>
      <point x="707.391" y="42.304"/>
    </contour>
  </outline>
</glyph>
<glyph name="quotesingle" format="2">
  <advance width="177"/>
  <unicode hex="0027"/>
  <anchor x="0" y="0" name="#entry"/>
  <anchor x="184" y="0" name="#exit"/>
  <outline>
    <contour>
      <point x="60" y="444" type="line"/>
      <point x="116" y="444" type="line"/>
      <point x="128" y="612" type="line"/>
      <point x="128" y="688" type="line"/>
      <point x="49" y="688" type="line"/>
      <point x="49" y="612" type="line"/>
    </contour>
  </outline>
</glyph>
<glyph name="comma" format="2">
  <advance width="230"/>
  <unicode hex="002C"/>
  <outline>
    <contour>
      <point x="49" y="-120" type="line"/>
      <point x="149" y="-120"/>
      <point x="170" y="-100"/>
      <point x="170" y="0" type="curve" smooth="yes"/>
      <point x="170" y="110" type="line"/>
      <point x="60" y="110" type="line"/>
      <point x="60" y="0" type="line"/>
      <point x="107" y="0" type="line"/>
      <point x="107" y="-27" type="line" smooth="yes"/>
      <point x="107" y="-67"/>
      <point x="97" y="-75"/>
      <point x="49" y="-75" type="curve"/>
    </contour>
  </outline>
</glyph>
<glyph name="hyphen" format="2">
  <advance width="361.52174"/>
  <unicode hex="002D"/>
  <outline>
    <contour>
      <point x="59.022" y="248.435" type="line"/>
      <point x="302.5" y="248.435" type="line"/>
      <point x="302.5" y="322.478" type="line"/>
      <point x="59.022" y="322.478" type="line"/>
    </contour>
  </outline>
</glyph>
<glyph name="slash" format="2">
  <advance width="358.97826"/>
  <unicode hex="002F"/>
  <outline>
    <contour>
      <point x="-3.804" y="-55" type="line"/>
      <point x="70.696" y="-55" type="line"/>
      <point x="361.696" y="743" type="line"/>
      <point x="286.196" y="743" type="line"/>
    </contour>
  </outline>
</glyph>
<glyph name="A" format="2">
  <advance width="786"/>
  <unicode hex="0041"/>
  <anchor x="393" y="0" name="bottom"/>
  <anchor x="707" y="10" name="ogonek"/>
  <anchor x="393" y="688" name="top"/>
  <outline>
    <contour>
      <point x="10" y="0" type="line"/>
      <point x="101" y="0" type="line"/>
      <point x="391" y="624" type="line"/>
      <point x="395" y="624" type="line"/>
      <point x="685" y="0" type="line"/>
      <point x="776" y="0" type="line"/>
      <point x="453" y="688" type="line"/>
      <point x="333" y="688" type="line"/>
    </contour>
    <contour>
      <point x="145" y="189" type="line"/>
      <point x="636" y="189" type="line"/>
      <point x="605" y="263" type="line"/>
      <point x="176" y="263" type="line"/>
    </contour>
  </outline>
</glyph>
<glyph name="B" format="2">
  <advance width="859"/>
  <unicode hex="0042"/>
  <anchor x="341.283" y="0" name="bottom"/>
  <anchor x="341.283" y="688" name="top"/>
  <outline>
    <contour>
      <point x="100" y="0" type="line"/>
      <point x="486" y="0" type="line" smooth="yes"/>
      <point x="713" y="0"/>
      <point x="774" y="40"/>
      <point x="774" y="190" type="curve" smooth="yes"/>
      <point x="774" y="197" type="line" smooth="yes"/>
      <point x="774" y="335"/>
      <point x="712" y="375"/>
      <point x="486" y="375" type="curve" smooth="yes"/>
      <point x="166" y="375" type="line"/>
      <point x="166" y="315" type="line"/>
      <point x="486" y="315" type="line" smooth="yes"/>
      <point x="659" y="315"/>
      <point x="692" y="299"/>
      <point x="692" y="211" type="curve" smooth="yes"/>
      <point x="692" y="176" type="line" smooth="yes"/>
      <point x="692" y="89"/>
      <point x="659" y="74"/>
      <point x="486" y="74" type="curve" smooth="yes"/>
      <point x="145" y="74" type="line"/>
      <point x="182" y="43" type="line"/>
      <point x="182" y="645" type="line"/>
      <point x="145" y="614" type="line"/>
      <point x="472" y="614" type="line" smooth="yes"/>
      <point x="645" y="614"/>
      <point x="678" y="600"/>
      <point x="678" y="518" type="curve" smooth="yes"/>
      <point x="678" y="483" type="line" smooth="yes"/>
      <point x="678" y="400"/>
      <point x="645" y="385"/>
      <point x="472" y="385" type="curve" smooth="yes"/>
      <point x="166" y="385" type="line"/>
      <point x="166" y="325" type="line"/>
      <point x="472" y="325" type="line" smooth="yes"/>
      <point x="698" y="325"/>
      <point x="760" y="364"/>
      <point x="760" y="497" type="curve" smooth="yes"/>
      <point x="760" y="504" type="line" smooth="yes"/>
      <point x="760" y="649"/>
      <point x="699" y="688"/>
      <point x="472" y="688" type="curve" smooth="yes"/>
      <point x="100" y="688" type="line"/>
    </contour>
  </outline>
</glyph>
<glyph name="C" format="2">
  <advance width="799"/>
  <unicode hex="0043"/>
  <anchor x="381" y="0" name="bottom"/>
  <anchor x="381" y="688" name="top"/>
  <outline>
    <contour>
      <point x="450" y="-8" type="curve" smooth="yes"/>
      <point x="536" y="-8"/>
      <point x="637" y="-1"/>
      <point x="704" y="10" type="curve"/>
      <point x="704" y="81" type="line"/>
      <point x="649" y="71"/>
      <point x="560" y="66"/>
      <point x="450" y="66" type="curve" smooth="yes"/>
      <point x="180" y="66"/>
      <point x="158" y="84"/>
      <point x="158" y="310" type="curve" smooth="yes"/>
      <point x="158" y="378" type="line" smooth="yes"/>
      <point x="158" y="601"/>
      <point x="184" y="622"/>
      <point x="450" y="622" type="curve" smooth="yes"/>
      <point x="553" y="622"/>
      <point x="640" y="617"/>
      <point x="699" y="607" type="curve"/>
      <point x="699" y="676" type="line"/>
      <point x="633" y="688"/>
      <point x="531" y="696"/>
      <point x="450" y="696" type="curve" smooth="yes"/>
      <point x="135" y="696"/>
      <point x="76" y="643"/>
      <point x="76" y="349" type="curve" smooth="yes"/>
      <point x="76" y="339" type="line" smooth="yes"/>
      <point x="76" y="43"/>
      <point x="130" y="-8"/>
    </contour>
  </outline>
</glyph>
<glyph name="D" format="2">
  <advance width="836"/>
  <unicode hex="0044"/>
  <anchor x="420" y="0" name="bottom"/>
  <anchor x="218" y="344" name="center"/>
  <anchor x="420" y="688" name="top"/>
  <outline>
    <contour>
      <point x="100" y="0" type="line"/>
      <point x="382" y="0" type="line" smooth="yes"/>
      <point x="705" y="0"/>
      <point x="760" y="49"/>
      <point x="760" y="339" type="curve" smooth="yes"/>
      <point x="760" y="349" type="line" smooth="yes"/>
      <point x="760" y="639"/>
      <point x="705" y="688"/>
      <point x="382" y="688" type="curve" smooth="yes"/>
      <point x="100" y="688" type="line"/>
    </contour>
    <contour>
      <point x="182" y="37" type="line"/>
      <point x="182" y="651" type="line"/>
      <point x="144" y="614" type="line"/>
      <point x="380" y="614" type="line" smooth="yes"/>
      <point x="651" y="614"/>
      <point x="678" y="592"/>
      <point x="678" y="377" type="curve" smooth="yes"/>
      <point x="678" y="311" type="line" smooth="yes"/>
      <point x="678" y="96"/>
      <point x="651" y="74"/>
      <point x="380" y="74" type="curve" smooth="yes"/>
      <point x="144" y="74" type="line"/>
    </contour>
  </outline>
</glyph>
<glyph name="E" format="2">
  <advance width="763"/>
  <unicode hex="0045"/>
  <anchor x="386" y="0" name="bottom"/>
  <anchor x="681" y="10" name="ogonek"/>
  <anchor x="386" y="688" name="top"/>
  <anchor x="36" y="688" name="topleft"/>
  <outline>
    <contour>
      <point x="145" y="385" type="line"/>
      <point x="145" y="311" type="line"/>
      <point x="666" y="311" type="line"/>
      <point x="666" y="385" type="line"/>
    </contour>
    <contour>
      <point x="182" y="37" type="line"/>
      <point x="182" y="651" type="line"/>
      <point x="145" y="612" type="line"/>
      <point x="713" y="612" type="line"/>
      <point x="713" y="688" type="line"/>
      <point x="100" y="688" type="line"/>
      <point x="100" y="0" type="line"/>
      <point x="713" y="0" type="line"/>
      <point x="713" y="76" type="line"/>
      <point x="145" y="76" type="line"/>
    </contour>
  </outline>
</glyph>
<glyph name="F" format="2">
  <advance width="737"/>
  <unicode hex="0046"/>
  <anchor x="374" y="0" name="bottom"/>
  <anchor x="374" y="688" name="top"/>
  <outline>
    <contour>
      <point x="145" y="375" type="line"/>
      <point x="145" y="301" type="line"/>
      <point x="650" y="301" type="line"/>
      <point x="650" y="375" type="line"/>
    </contour>
    <contour>
      <point x="182" y="0" type="line"/>
      <point x="182" y="651" type="line"/>
      <point x="145" y="612" type="line"/>
      <point x="697" y="612" type="line"/>
      <point x="697" y="688" type="line"/>
      <point x="100" y="688" type="line"/>
      <point x="100" y="0" type="line"/>
    </contour>
  </outline>
</glyph>
<glyph name="G" format="2">
  <advance width="853"/>
  <unicode hex="0047"/>
  <anchor x="425" y="0" name="bottom"/>
  <anchor x="425" y="688" name="top"/>
  <outline>
    <contour>
      <point x="450" y="-8" type="curve" smooth="yes"/>
      <point x="556" y="-8"/>
      <point x="678" y="-1"/>
      <point x="758" y="10" type="curve"/>
      <point x="758" y="370" type="line"/>
      <point x="391" y="370" type="line"/>
      <point x="391" y="300" type="line"/>
      <point x="678" y="300" type="line"/>
      <point x="678" y="75" type="line"/>
      <point x="629" y="69"/>
      <point x="550" y="66"/>
      <point x="450" y="66" type="curve" smooth="yes"/>
      <point x="180" y="66"/>
      <point x="158" y="84"/>
      <point x="158" y="310" type="curve" smooth="yes"/>
      <point x="158" y="378" type="line" smooth="yes"/>
      <point x="158" y="601"/>
      <point x="184" y="622"/>
      <point x="450" y="622" type="curve" smooth="yes"/>
      <point x="577" y="622"/>
      <point x="682" y="617"/>
      <point x="755" y="607" type="curve"/>
      <point x="755" y="676" type="line"/>
      <point x="675" y="688"/>
      <point x="549" y="696"/>
      <point x="450" y="696" type="curve" smooth="yes"/>
      <point x="134" y="696"/>
      <point x="76" y="642"/>
      <point x="76" y="349" type="curve" smooth="yes"/>
      <point x="76" y="339" type="line" smooth="yes"/>
      <point x="76" y="43"/>
      <point x="130" y="-8"/>
    </contour>
  </outline>
</glyph>
<glyph name="H" format="2">
  <advance width="874"/>
  <unicode hex="0048"/>
  <anchor x="437" y="0" name="bottom"/>
  <anchor x="437" y="550" name="center"/>
  <anchor x="437" y="688" name="top"/>
  <anchor x="36" y="688" name="topleft"/>
  <outline>
    <contour>
      <point x="100" y="0" type="line"/>
      <point x="182" y="0" type="line"/>
      <point x="182" y="347" type="line"/>
      <point x="145" y="310" type="line"/>
      <point x="729" y="310" type="line"/>
      <point x="692" y="347" type="line"/>
      <point x="692" y="0" type="line"/>
      <point x="774" y="0" type="line"/>
      <point x="774" y="688" type="line"/>
      <point x="692" y="688" type="line"/>
      <point x="692" y="347" type="line"/>
      <point x="729" y="384" type="line"/>
      <point x="145" y="384" type="line"/>
      <point x="182" y="347" type="line"/>
      <point x="182" y="688" type="line"/>
      <point x="100" y="688" type="line"/>
    </contour>
  </outline>
</glyph>
<glyph name="J" format="2">
  <advance width="359"/>
  <unicode hex="004A"/>
  <anchor x="180" y="0" name="bottom"/>
  <anchor x="180" y="688" name="top"/>
  <outline>
    <contour>
      <point x="259" y="688" type="line"/>
      <point x="177" y="688" type="line"/>
      <point x="177" y="141" type="line" smooth="yes"/>
      <point x="177" y="78"/>
      <point x="148" y="66"/>
      <point x="5" y="66" type="curve"/>
      <point x="5" y="-4" type="line"/>
      <point x="204" y="-4"/>
      <point x="259" y="29"/>
      <point x="259" y="148" type="curve" smooth="yes"/>
    </contour>
  </outline>
</glyph>
<glyph name="K" format="2">
  <advance width="793"/>
  <unicode hex="004B"/>
  <anchor x="335.717" y="0" name="bottom"/>
  <anchor x="335.717" y="688" name="top"/>
  <outline>
    <contour>
      <point x="177" y="313" type="line"/>
      <point x="391" y="313" type="line"/>
      <point x="681" y="0" type="line"/>
      <point x="783" y="0" type="line"/>
      <point x="458" y="350" type="line"/>
      <point x="770" y="688" type="line"/>
      <point x="669" y="688" type="line"/>
      <point x="391" y="387" type="line"/>
      <point x="177" y="387" type="line"/>
    </contour>
    <contour>
      <point x="100" y="0" type="line"/>
      <point x="182" y="0" type="line"/>
      <point x="182" y="688" type="line"/>
      <point x="100" y="688" type="line"/>
    </contour>
  </outline>
</glyph>
<glyph name="M" format="2">
  <advance width="884"/>
  <unicode hex="004D"/>
  <outline>
    <contour>
      <point x="100" y="0" type="line"/>
      <point x="182" y="0" type="line"/>
      <point x="182" y="580" type="line"/>
      <point x="388" y="0" type="line"/>
      <point x="496" y="0" type="line"/>
      <point x="702" y="580" type="line"/>
      <point x="702" y="0" type="line"/>
      <point x="784" y="0" type="line"/>
      <point x="784" y="688" type="line"/>
      <point x="656" y="688" type="line"/>
      <point x="442" y="75" type="line"/>
      <point x="228" y="688" type="line"/>
      <point x="100" y="688" type="line"/>
    </contour>
  </outline>
</glyph>
<glyph name="N" format="2">
  <advance width="858"/>
  <unicode hex="004E"/>
  <anchor x="419" y="0" name="bottom"/>
  <anchor x="419" y="688" name="top"/>
  <outline>
    <contour>
      <point x="100" y="0" type="line"/>
      <point x="182" y="0" type="line"/>
      <point x="182" y="546" type="line"/>
      <point x="671" y="0" type="line"/>
      <point x="758" y="0" type="line"/>
      <point x="758" y="688" type="line"/>
      <point x="676" y="688" type="line"/>
      <point x="676" y="142" type="line"/>
      <point x="187" y="688" type="line"/>
      <point x="100" y="688" type="line"/>
    </contour>
  </outline>
</glyph>
<glyph name="O" format="2">
  <advance width="888"/>
  <unicode hex="004F"/>
  <anchor x="444" y="-2" name="bottom"/>
  <anchor x="444" y="344" name="center"/>
  <anchor x="790" y="10" name="ogonek"/>
  <anchor x="444" y="688" name="top"/>
  <anchor x="32" y="688" name="topleft"/>
  <anchor x="856" y="688" name="topright"/>
  <outline>
    <contour>
      <point x="444" y="-8" type="curve" smooth="yes"/>
      <point x="757" y="-8"/>
      <point x="812" y="44"/>
      <point x="812" y="339" type="curve" smooth="yes"/>
      <point x="812" y="349" type="line" smooth="yes"/>
      <point x="812" y="644"/>
      <point x="757" y="696"/>
      <point x="444" y="696" type="curve" smooth="yes"/>
      <point x="131" y="696"/>
      <point x="76" y="644"/>
      <point x="76" y="349" type="curve" smooth="yes"/>
      <point x="76" y="339" type="line" smooth="yes"/>
      <point x="76" y="44"/>
      <point x="131" y="-8"/>
    </contour>
    <contour>
      <point x="444" y="66" type="curve" smooth="yes"/>
      <point x="186" y="66"/>
      <point x="158" y="89"/>
      <point x="158" y="310" type="curve" smooth="yes"/>
      <point x="158" y="378" type="line" smooth="yes"/>
      <point x="158" y="599"/>
      <point x="186" y="622"/>
      <point x="444" y="622" type="curve" smooth="yes"/>
      <point x="702" y="622"/>
      <point x="730" y="599"/>
      <point x="730" y="378" type="curve" smooth="yes"/>
      <point x="730" y="310" type="line" smooth="yes"/>
      <point x="730" y="89"/>
      <point x="702" y="66"/>
    </contour>
  </outline>
</glyph>
<glyph name="P" format="2">
  <advance width="771"/>
  <unicode hex="0050"/>
  <anchor x="391" y="0" name="bottom"/>
  <anchor x="391" y="688" name="top"/>
  <outline>
    <contour>
      <point x="100" y="0" type="line"/>
      <point x="182" y="0" type="line"/>
      <point x="182" y="645" type="line"/>
      <point x="145" y="614" type="line"/>
      <point x="458" y="614" type="line" smooth="yes"/>
      <point x="643" y="614"/>
      <point x="659" y="603"/>
      <point x="659" y="485" type="curve" smooth="yes"/>
      <point x="659" y="450" type="line" smooth="yes"/>
      <point x="659" y="332"/>
      <point x="643" y="321"/>
      <point x="458" y="321" type="curve" smooth="yes"/>
      <point x="171" y="321" type="line"/>
      <point x="171" y="247" type="line"/>
      <point x="438" y="247" type="line" smooth="yes"/>
      <point x="691" y="247"/>
      <point x="741" y="280"/>
      <point x="741" y="464" type="curve" smooth="yes"/>
      <point x="741" y="471" type="line" smooth="yes"/>
      <point x="741" y="655"/>
      <point x="691" y="688"/>
      <point x="438" y="688" type="curve" smooth="yes"/>
      <point x="100" y="688" type="line"/>
    </contour>
  </outline>
</glyph>
<glyph name="R" format="2">
  <advance width="826"/>
  <unicode hex="0052"/>
  <anchor x="416" y="0" name="bottom"/>
  <anchor x="416" y="688" name="top"/>
  <outline>
    <contour>
      <point x="100" y="0" type="line"/>
      <point x="182" y="0" type="line"/>
      <point x="182" y="645" type="line"/>
      <point x="145" y="614" type="line"/>
      <point x="468" y="614" type="line" smooth="yes"/>
      <point x="653" y="614"/>
      <point x="669" y="604"/>
      <point x="669" y="495" type="curve" smooth="yes"/>
      <point x="669" y="460" type="line" smooth="yes"/>
      <point x="669" y="351"/>
      <point x="653" y="341"/>
      <point x="468" y="341" type="curve" smooth="yes"/>
      <point x="171" y="341" type="line"/>
      <point x="171" y="267" type="line"/>
      <point x="448" y="267" type="line" smooth="yes"/>
      <point x="701" y="267"/>
      <point x="751" y="297"/>
      <point x="751" y="464" type="curve" smooth="yes"/>
      <point x="751" y="471" type="line" smooth="yes"/>
      <point x="751" y="655"/>
      <point x="701" y="688"/>
      <point x="448" y="688" type="curve" smooth="yes"/>
      <point x="100" y="688" type="line"/>
    </contour>
    <contour>
      <point x="670" y="0" type="line"/>
      <point x="761" y="0" type="line"/>
      <point x="616" y="294" type="line"/>
      <point x="528" y="294" type="line"/>
    </contour>
  </outline>
</glyph>
<glyph name="S" format="2">
  <advance width="776"/>
  <unicode hex="0053"/>
  <anchor x="388" y="0" name="bottom"/>
  <anchor x="388" y="688" name="top"/>
  <outline>
    <contour>
      <point x="393" y="-8" type="curve" smooth="yes"/>
      <point x="632" y="-8"/>
      <point x="705" y="39"/>
      <point x="705" y="193" type="curve" smooth="yes"/>
      <point x="705" y="314"/>
      <point x="669" y="358"/>
      <point x="558" y="370" type="curve" smooth="yes"/>
      <point x="236" y="400" type="line" smooth="yes"/>
      <point x="167" y="409"/>
      <point x="153" y="425"/>
      <point x="153" y="499" type="curve" smooth="yes"/>
      <point x="153" y="601"/>
      <point x="191" y="622"/>
      <point x="379" y="622" type="curve" smooth="yes"/>
      <point x="471" y="622"/>
      <point x="589" y="615"/>
      <point x="677" y="605" type="curve"/>
      <point x="677" y="677" type="line"/>
      <point x="571" y="689"/>
      <point x="456" y="696"/>
      <point x="383" y="696" type="curve" smooth="yes"/>
      <point x="145" y="696"/>
      <point x="71" y="650"/>
      <point x="71" y="501" type="curve" smooth="yes"/>
      <point x="71" y="382"/>
      <point x="110" y="335"/>
      <point x="216" y="324" type="curve" smooth="yes"/>
      <point x="538" y="294" type="line" smooth="yes"/>
      <point x="614" y="283"/>
      <point x="623" y="272"/>
      <point x="623" y="193" type="curve" smooth="yes"/>
      <point x="623" y="88"/>
      <point x="584" y="66"/>
      <point x="395" y="66" type="curve" smooth="yes"/>
      <point x="297" y="66"/>
      <point x="171" y="73"/>
      <point x="77" y="83" type="curve"/>
      <point x="77" y="11" type="line"/>
      <point x="193" y="-1"/>
      <point x="316" y="-8"/>
    </contour>
  </outline>
</glyph>
<glyph name="T" format="2">
  <advance width="630"/>
  <unicode hex="0054"/>
  <anchor x="315" y="0" name="bottom"/>
  <anchor x="315" y="344" name="center"/>
  <anchor x="315" y="688" name="top"/>
  <outline>
    <contour>
      <point x="274" y="0" type="line"/>
      <point x="356" y="0" type="line"/>
      <point x="356" y="649" type="line"/>
      <point x="321" y="612" type="line"/>
      <point x="620" y="612" type="line"/>
      <point x="620" y="688" type="line"/>
      <point x="10" y="688" type="line"/>
      <point x="10" y="612" type="line"/>
      <point x="309" y="612" type="line"/>
      <point x="274" y="649" type="line"/>
    </contour>
  </outline>
</glyph>
<glyph name="U" format="2">
  <advance width="874"/>
  <unicode hex="0055"/>
  <anchor x="437" y="0" name="bottom"/>
  <anchor x="775" y="10" name="ogonek"/>
  <anchor x="437" y="688" name="top"/>
  <anchor x="839" y="688" name="topright"/>
  <outline>
    <contour>
      <point x="437" y="-8" type="curve" smooth="yes"/>
      <point x="726" y="-8"/>
      <point x="779" y="43"/>
      <point x="779" y="326" type="curve" smooth="yes"/>
      <point x="779" y="688" type="line"/>
      <point x="697" y="688" type="line"/>
      <point x="697" y="297" type="line" smooth="yes"/>
      <point x="697" y="89"/>
      <point x="672" y="68"/>
      <point x="437" y="68" type="curve" smooth="yes"/>
      <point x="202" y="68"/>
      <point x="177" y="89"/>
      <point x="177" y="297" type="curve" smooth="yes"/>
      <point x="177" y="688" type="line"/>
      <point x="95" y="688" type="line"/>
      <point x="95" y="326" type="line" smooth="yes"/>
      <point x="95" y="43"/>
      <point x="148" y="-8"/>
    </contour>
  </outline>
</glyph>
<glyph name="V" format="2">
  <advance width="744"/>
  <unicode hex="0056"/>
  <outline>
    <contour>
      <point x="315" y="0" type="line"/>
      <point x="429" y="0" type="line"/>
      <point x="734" y="688" type="line"/>
      <point x="646" y="688" type="line"/>
      <point x="372" y="71" type="line"/>
      <point x="98" y="688" type="line"/>
      <point x="10" y="688" type="line"/>
    </contour>
  </outline>
</glyph>
<glyph name="W" format="2">
  <advance width="904"/>
  <unicode hex="0057"/>
  <outline>
    <contour>
      <point x="184" y="0" type="line"/>
      <point x="296" y="0" type="line"/>
      <point x="452" y="593" type="line"/>
      <point x="608" y="0" type="line"/>
      <point x="720" y="0" type="line"/>
      <point x="894" y="688" type="line"/>
      <point x="812" y="688" type="line"/>
      <point x="663" y="113" type="line"/>
      <point x="508" y="688" type="line"/>
      <point x="396" y="688" type="line"/>
      <point x="241" y="108" type="line"/>
      <point x="92" y="688" type="line"/>
      <point x="10" y="688" type="line"/>
    </contour>
  </outline>
</glyph>
<glyph name="X" format="2">
  <advance width="784"/>
  <unicode hex="0058"/>
  <anchor x="585" y="0" name="bottom"/>
  <anchor x="585" y="510" name="top"/>
  <outline>
    <contour>
      <point x="652" y="0" type="line"/>
      <point x="764" y="0" type="line"/>
      <point x="147" y="688" type="line"/>
      <point x="35" y="688" type="line"/>
    </contour>
    <contour>
      <point x="20" y="0" type="line"/>
      <point x="132" y="0" type="line"/>
      <point x="749" y="688" type="line"/>
      <point x="637" y="688" type="line"/>
    </contour>
  </outline>
</glyph>
<glyph name="Y" format="2">
  <advance width="732"/>
  <unicode hex="0059"/>
  <anchor x="366" y="0" name="bottom"/>
  <anchor x="366" y="688" name="top"/>
  <anchor x="4" y="688" name="topleft"/>
  <outline>
    <contour>
      <point x="325" y="0" type="line"/>
      <point x="407" y="0" type="line"/>
      <point x="407" y="289" type="line"/>
      <point x="399" y="255" type="line"/>
      <point x="722" y="688" type="line"/>
      <point x="621" y="688" type="line"/>
      <point x="366" y="346" type="line"/>
      <point x="111" y="688" type="line"/>
      <point x="10" y="688" type="line"/>
      <point x="333" y="255" type="line"/>
      <point x="325" y="289" type="line"/>
    </contour>
  </outline>
</glyph>
<glyph name="Z" format="2">
  <advance width="717"/>
  <unicode hex="005A"/>
  <anchor x="342" y="0" name="bottom"/>
  <anchor x="342" y="344" name="center"/>
  <anchor x="342" y="688" name="top"/>
  <outline>
    <contour>
      <point x="50" y="0" type="line"/>
      <point x="667" y="0" type="line"/>
      <point x="667" y="74" type="line"/>
      <point x="163" y="74" type="line"/>
      <point x="659" y="622" type="line"/>
      <point x="659" y="688" type="line"/>
      <point x="64" y="688" type="line"/>
      <point x="64" y="614" type="line"/>
      <point x="546" y="614" type="line"/>
      <point x="50" y="66" type="line"/>
    </contour>
  </outline>
</glyph>
<glyph name="underscore" format="2">
  <advance width="358.47826"/>
  <unicode hex="005F"/>
  <outline>
    <contour>
      <point x="0" y="-170.326" type="line"/>
      <point x="358.478" y="-170.326" type="line"/>
      <point x="358.478" y="-104.087" type="line"/>
      <point x="0" y="-104.087" type="line"/>
    </contour>
  </outline>
</glyph>
<glyph name="a" format="2">
  <advance width="736"/>
  <unicode hex="0061"/>
  <anchor x="513" y="0" name="bottom"/>
  <anchor x="747" y="10" name="ogonek"/>
  <anchor x="513" y="510" name="top"/>
  <outline>
    <contour>
      <point x="304" y="-8" type="curve" smooth="yes"/>
      <point x="442" y="-8"/>
      <point x="519" y="19"/>
      <point x="555" y="78" type="curve"/>
      <point x="559" y="78" type="line"/>
      <point x="571" y="0" type="line"/>
      <point x="641" y="0" type="line"/>
      <point x="641" y="259" type="line" smooth="yes"/>
      <point x="641" y="484"/>
      <point x="602" y="518"/>
      <point x="346" y="518" type="curve" smooth="yes"/>
      <point x="266" y="518"/>
      <point x="184" y="513"/>
      <point x="89" y="503" type="curve"/>
      <point x="89" y="435" type="line"/>
      <point x="173" y="444"/>
      <point x="259" y="448"/>
      <point x="364" y="448" type="curve" smooth="yes"/>
      <point x="546" y="448"/>
      <point x="559" y="436"/>
      <point x="559" y="279" type="curve" smooth="yes"/>
      <point x="559" y="240" type="line" smooth="yes"/>
      <point x="559" y="101"/>
      <point x="509" y="62"/>
      <point x="326" y="62" type="curve" smooth="yes"/>
      <point x="171" y="62"/>
      <point x="145" y="75"/>
      <point x="145" y="149" type="curve" smooth="yes"/>
      <point x="145" y="218"/>
      <point x="179" y="235"/>
      <point x="322" y="235" type="curve" smooth="yes"/>
      <point x="578" y="235" type="line"/>
      <point x="578" y="305" type="line"/>
      <point x="309" y="305" type="line" smooth="yes"/>
      <point x="120" y="305"/>
      <point x="63" y="268"/>
      <point x="63" y="143" type="curve" smooth="yes"/>
      <point x="63" y="24"/>
      <point x="114" y="-8"/>
    </contour>
  </outline>
</glyph>
<glyph name="b" format="2">
  <advance width="779"/>
  <unicode hex="0062"/>
  <anchor x="-441" y="0" name="bottom"/>
  <anchor x="-596" y="594" name="center"/>
  <anchor x="-441" y="510" name="top"/>
  <outline>
    <contour>
      <point x="446" y="-8" type="curve" smooth="yes"/>
      <point x="669" y="-8"/>
      <point x="709" y="31"/>
      <point x="709" y="251" type="curve" smooth="yes"/>
      <point x="709" y="259" type="line" smooth="yes"/>
      <point x="709" y="479"/>
      <point x="669" y="518"/>
      <point x="446" y="518" type="curve" smooth="yes"/>
      <point x="302" y="518"/>
      <point x="222" y="487"/>
      <point x="186" y="417" type="curve"/>
      <point x="182" y="417" type="line"/>
      <point x="182" y="743" type="line"/>
      <point x="100" y="743" type="line"/>
      <point x="100" y="0" type="line"/>
      <point x="170" y="0" type="line"/>
      <point x="182" y="93" type="line"/>
      <point x="186" y="93" type="line"/>
      <point x="222" y="23"/>
      <point x="302" y="-8"/>
    </contour>
    <contour>
      <point x="415" y="62" type="curve" smooth="yes"/>
      <point x="235" y="62"/>
      <point x="182" y="104"/>
      <point x="182" y="244" type="curve" smooth="yes"/>
      <point x="182" y="266" type="line" smooth="yes"/>
      <point x="182" y="406"/>
      <point x="235" y="448"/>
      <point x="415" y="448" type="curve" smooth="yes"/>
      <point x="601" y="448"/>
      <point x="627" y="427"/>
      <point x="627" y="307" type="curve" smooth="yes"/>
      <point x="627" y="203" type="line" smooth="yes"/>
      <point x="627" y="83"/>
      <point x="601" y="62"/>
    </contour>
  </outline>
</glyph>
<glyph name="d" format="2">
  <advance width="779"/>
  <unicode hex="0064"/>
  <anchor x="310" y="0" name="bottom"/>
  <anchor x="464" y="594" name="center"/>
  <anchor x="310" y="510" name="top"/>
  <anchor x="519" y="743" name="topright"/>
  <outline>
    <contour>
      <point x="333" y="-8" type="curve" smooth="yes"/>
      <point x="477" y="-8"/>
      <point x="557" y="23"/>
      <point x="593" y="93" type="curve"/>
      <point x="597" y="93" type="line"/>
      <point x="609" y="0" type="line"/>
      <point x="679" y="0" type="line"/>
      <point x="679" y="743" type="line"/>
      <point x="597" y="743" type="line"/>
      <point x="597" y="417" type="line"/>
      <point x="593" y="417" type="line"/>
      <point x="557" y="487"/>
      <point x="477" y="518"/>
      <point x="333" y="518" type="curve" smooth="yes"/>
      <point x="110" y="518"/>
      <point x="70" y="479"/>
      <point x="70" y="259" type="curve" smooth="yes"/>
      <point x="70" y="251" type="line" smooth="yes"/>
      <point x="70" y="31"/>
      <point x="110" y="-8"/>
    </contour>
    <contour>
      <point x="364" y="62" type="curve" smooth="yes"/>
      <point x="178" y="62"/>
      <point x="152" y="83"/>
      <point x="152" y="203" type="curve" smooth="yes"/>
      <point x="152" y="307" type="line" smooth="yes"/>
      <point x="152" y="427"/>
      <point x="178" y="448"/>
      <point x="364" y="448" type="curve" smooth="yes"/>
      <point x="544" y="448"/>
      <point x="597" y="406"/>
      <point x="597" y="266" type="curve" smooth="yes"/>
      <point x="597" y="244" type="line" smooth="yes"/>
      <point x="597" y="104"/>
      <point x="544" y="62"/>
    </contour>
  </outline>
</glyph>
<glyph name="e" format="2">
  <advance width="726"/>
  <unicode hex="0065"/>
  <anchor x="362" y="0" name="bottom"/>
  <anchor x="674" y="10" name="ogonek"/>
  <anchor x="362" y="510" name="top"/>
  <outline>
    <contour>
      <point x="370" y="-8" type="curve" smooth="yes"/>
      <point x="469" y="-8"/>
      <point x="581" y="0"/>
      <point x="643" y="12" type="curve"/>
      <point x="643" y="80" type="line"/>
      <point x="570" y="69"/>
      <point x="457" y="62"/>
      <point x="370" y="62" type="curve" smooth="yes"/>
      <point x="175" y="62"/>
      <point x="152" y="74"/>
      <point x="152" y="231" type="curve" smooth="yes"/>
      <point x="152" y="279" type="line" smooth="yes"/>
      <point x="152" y="436"/>
      <point x="175" y="448"/>
      <point x="370" y="448" type="curve" smooth="yes"/>
      <point x="559" y="448"/>
      <point x="581" y="436"/>
      <point x="581" y="279" type="curve" smooth="yes"/>
      <point x="581" y="245" type="line"/>
      <point x="620" y="286" type="line"/>
      <point x="114" y="286" type="line"/>
      <point x="114" y="216" type="line"/>
      <point x="663" y="216" type="line"/>
      <point x="663" y="259" type="line" smooth="yes"/>
      <point x="663" y="479"/>
      <point x="619" y="518"/>
      <point x="370" y="518" type="curve" smooth="yes"/>
      <point x="116" y="518"/>
      <point x="70" y="479"/>
      <point x="70" y="259" type="curve" smooth="yes"/>
      <point x="70" y="251" type="line" smooth="yes"/>
      <point x="70" y="31"/>
      <point x="116" y="-8"/>
    </contour>
  </outline>
</glyph>
<glyph name="f" format="2">
  <advance width="422"/>
  <unicode hex="0066"/>
  <anchor x="220" y="0" name="bottom"/>
  <anchor x="220" y="743" name="top"/>
  <outline>
    <contour>
      <point x="163" y="0" type="line"/>
      <point x="245" y="0" type="line"/>
      <point x="245" y="598" type="line" smooth="yes"/>
      <point x="245" y="661"/>
      <point x="274" y="673"/>
      <point x="417" y="673" type="curve"/>
      <point x="417" y="743" type="line"/>
      <point x="218" y="743"/>
      <point x="163" y="710"/>
      <point x="163" y="591" type="curve" smooth="yes"/>
    </contour>
    <contour>
      <point x="20" y="440" type="line"/>
      <point x="180" y="440" type="line"/>
      <point x="180" y="510" type="line"/>
      <point x="20" y="510" type="line"/>
    </contour>
    <contour>
      <point x="229" y="440" type="line"/>
      <point x="417" y="440" type="line"/>
      <point x="417" y="510" type="line"/>
      <point x="229" y="510" type="line"/>
    </contour>
  </outline>
</glyph>
<glyph name="g" format="2">
  <advance width="779"/>
  <unicode hex="0067"/>
  <anchor x="517" y="-200" name="bottom"/>
  <anchor x="1375" y="-84" name="center"/>
  <anchor x="517" y="510" name="top"/>
  <outline>
    <contour>
      <point x="384" y="-208" type="curve" smooth="yes"/>
      <point x="640" y="-208"/>
      <point x="679" y="-174"/>
      <point x="679" y="51" type="curve" smooth="yes"/>
      <point x="679" y="510" type="line"/>
      <point x="609" y="510" type="line"/>
      <point x="597" y="417" type="line"/>
      <point x="593" y="417" type="line"/>
      <point x="557" y="487"/>
      <point x="477" y="518"/>
      <point x="333" y="518" type="curve" smooth="yes"/>
      <point x="110" y="518"/>
      <point x="70" y="479"/>
      <point x="70" y="259" type="curve" smooth="yes"/>
      <point x="70" y="251" type="line" smooth="yes"/>
      <point x="70" y="31"/>
      <point x="110" y="-8"/>
      <point x="333" y="-8" type="curve" smooth="yes"/>
      <point x="477" y="-8"/>
      <point x="557" y="23"/>
      <point x="593" y="93" type="curve"/>
      <point x="597" y="93" type="line"/>
      <point x="597" y="31" type="line" smooth="yes"/>
      <point x="597" y="-126"/>
      <point x="584" y="-138"/>
      <point x="402" y="-138" type="curve" smooth="yes"/>
      <point x="297" y="-138"/>
      <point x="211" y="-134"/>
      <point x="127" y="-125" type="curve"/>
      <point x="127" y="-193" type="line"/>
      <point x="222" y="-203"/>
      <point x="304" y="-208"/>
    </contour>
    <contour>
      <point x="364" y="62" type="curve" smooth="yes"/>
      <point x="178" y="62"/>
      <point x="152" y="83"/>
      <point x="152" y="203" type="curve" smooth="yes"/>
      <point x="152" y="307" type="line" smooth="yes"/>
      <point x="152" y="427"/>
      <point x="178" y="448"/>
      <point x="364" y="448" type="curve" smooth="yes"/>
      <point x="544" y="448"/>
      <point x="597" y="406"/>
      <point x="597" y="266" type="curve" smooth="yes"/>
      <point x="597" y="244" type="line" smooth="yes"/>
      <point x="597" y="104"/>
      <point x="544" y="62"/>
    </contour>
  </outline>
</glyph>
<glyph name="h" format="2">
  <advance width="783"/>
  <unicode hex="0068"/>
  <anchor x="391" y="0" name="bottom"/>
  <anchor x="391" y="510" name="top"/>
  <outline>
    <contour>
      <point x="100" y="0" type="line"/>
      <point x="182" y="0" type="line"/>
      <point x="182" y="270" type="line" smooth="yes"/>
      <point x="182" y="417"/>
      <point x="224" y="448"/>
      <point x="415" y="448" type="curve" smooth="yes"/>
      <point x="578" y="448"/>
      <point x="606" y="430"/>
      <point x="606" y="332" type="curve" smooth="yes"/>
      <point x="606" y="0" type="line"/>
      <point x="688" y="0" type="line"/>
      <point x="688" y="344" type="line" smooth="yes"/>
      <point x="688" y="477"/>
      <point x="632" y="518"/>
      <point x="445" y="518" type="curve" smooth="yes"/>
      <point x="300" y="518"/>
      <point x="219" y="492"/>
      <point x="182" y="432" type="curve"/>
      <point x="182" y="743" type="line"/>
      <point x="100" y="743" type="line"/>
    </contour>
  </outline>
</glyph>
<glyph name="k" format="2">
  <advance width="678"/>
  <unicode hex="006B"/>
  <anchor x="317" y="0" name="bottom"/>
  <anchor x="317" y="510" name="top"/>
  <outline>
    <contour>
      <point x="182" y="225" type="line"/>
      <point x="388" y="225" type="line"/>
      <point x="562" y="0" type="line"/>
      <point x="663" y="0" type="line"/>
      <point x="461" y="260" type="line"/>
      <point x="658" y="510" type="line"/>
      <point x="557" y="510" type="line"/>
      <point x="388" y="295" type="line"/>
      <point x="182" y="295" type="line"/>
    </contour>
    <contour>
      <point x="100" y="0" type="line"/>
      <point x="182" y="0" type="line"/>
      <point x="182" y="743" type="line"/>
      <point x="100" y="743" type="line"/>
    </contour>
  </outline>
</glyph>
<glyph name="m" format="2">
  <advance width="1289"/>
  <unicode hex="006D"/>
  <anchor x="622" y="-11" name="bottom"/>
  <anchor x="391" y="510" name="top"/>
  <outline>
    <contour>
      <point x="100" y="0" type="line"/>
      <point x="182" y="0" type="line"/>
      <point x="182" y="221" type="line" smooth="yes"/>
      <point x="182" y="407"/>
      <point x="226" y="448"/>
      <point x="425" y="448" type="curve" smooth="yes"/>
      <point x="580" y="448"/>
      <point x="606" y="424"/>
      <point x="606" y="287" type="curve" smooth="yes"/>
      <point x="606" y="0" type="line"/>
      <point x="688" y="0" type="line"/>
      <point x="688" y="261" type="line" smooth="yes"/>
      <point x="688" y="415"/>
      <point x="731" y="448"/>
      <point x="931" y="448" type="curve" smooth="yes"/>
      <point x="1086" y="448"/>
      <point x="1112" y="424"/>
      <point x="1112" y="287" type="curve" smooth="yes"/>
      <point x="1112" y="0" type="line"/>
      <point x="1194" y="0" type="line"/>
      <point x="1194" y="299" type="line" smooth="yes"/>
      <point x="1194" y="468"/>
      <point x="1140" y="518"/>
      <point x="961" y="518" type="curve" smooth="yes"/>
      <point x="800" y="518"/>
      <point x="725" y="496"/>
      <point x="683" y="427" type="curve"/>
      <point x="679" y="427" type="line"/>
      <point x="650" y="494"/>
      <point x="583" y="518"/>
      <point x="455" y="518" type="curve" smooth="yes"/>
      <point x="306" y="518"/>
      <point x="223" y="490"/>
      <point x="186" y="427" type="curve"/>
      <point x="182" y="427" type="line"/>
      <point x="170" y="510" type="line"/>
      <point x="100" y="510" type="line"/>
    </contour>
  </outline>
</glyph>
<glyph name="n" format="2">
  <advance width="783"/>
  <unicode hex="006E"/>
  <anchor x="391" y="0" name="bottom"/>
  <anchor x="391" y="510" name="top"/>
  <outline>
    <contour>
      <point x="100" y="0" type="line"/>
      <point x="182" y="0" type="line"/>
      <point x="182" y="270" type="line" smooth="yes"/>
      <point x="182" y="417"/>
      <point x="224" y="448"/>
      <point x="415" y="448" type="curve" smooth="yes"/>
      <point x="578" y="448"/>
      <point x="606" y="430"/>
      <point x="606" y="332" type="curve" smooth="yes"/>
      <point x="606" y="0" type="line"/>
      <point x="688" y="0" type="line"/>
      <point x="688" y="344" type="line" smooth="yes"/>
      <point x="688" y="477"/>
      <point x="632" y="518"/>
      <point x="445" y="518" type="curve" smooth="yes"/>
      <point x="302" y="518"/>
      <point x="222" y="492"/>
      <point x="186" y="432" type="curve"/>
      <point x="182" y="432" type="line"/>
      <point x="170" y="510" type="line"/>
      <point x="100" y="510" type="line"/>
    </contour>
  </outline>
</glyph>
<glyph name="o" format="2">
  <advance width="748"/>
  <unicode hex="006F"/>
  <anchor x="374" y="0" name="bottom"/>
  <anchor x="374" y="255" name="center"/>
  <anchor x="696" y="10" name="ogonek"/>
  <anchor x="374" y="510" name="top"/>
  <anchor x="749" y="510" name="topright"/>
  <outline>
    <contour>
      <point x="374" y="-8" type="curve" smooth="yes"/>
      <point x="632" y="-8"/>
      <point x="678" y="31"/>
      <point x="678" y="251" type="curve" smooth="yes"/>
      <point x="678" y="259" type="line" smooth="yes"/>
      <point x="678" y="479"/>
      <point x="632" y="518"/>
      <point x="374" y="518" type="curve" smooth="yes"/>
      <point x="116" y="518"/>
      <point x="70" y="479"/>
      <point x="70" y="259" type="curve" smooth="yes"/>
      <point x="70" y="251" type="line" smooth="yes"/>
      <point x="70" y="31"/>
      <point x="116" y="-8"/>
    </contour>
    <contour>
      <point x="374" y="62" type="curve" smooth="yes"/>
      <point x="181" y="62"/>
      <point x="152" y="84"/>
      <point x="152" y="231" type="curve" smooth="yes"/>
      <point x="152" y="279" type="line" smooth="yes"/>
      <point x="152" y="426"/>
      <point x="181" y="448"/>
      <point x="374" y="448" type="curve" smooth="yes"/>
      <point x="567" y="448"/>
      <point x="596" y="426"/>
      <point x="596" y="279" type="curve" smooth="yes"/>
      <point x="596" y="231" type="line" smooth="yes"/>
      <point x="596" y="84"/>
      <point x="567" y="62"/>
    </contour>
  </outline>
</glyph>
<glyph name="r" format="2">
  <advance width="484"/>
  <unicode hex="0072"/>
  <anchor x="248" y="0" name="bottom"/>
  <anchor x="248" y="510" name="top"/>
  <outline>
    <contour>
      <point x="100" y="0" type="line"/>
      <point x="182" y="0" type="line"/>
      <point x="182" y="221" type="line" smooth="yes"/>
      <point x="182" y="407"/>
      <point x="226" y="448"/>
      <point x="425" y="448" type="curve" smooth="yes"/>
      <point x="455" y="448" type="line"/>
      <point x="455" y="518" type="line"/>
      <point x="306" y="518"/>
      <point x="223" y="490"/>
      <point x="186" y="427" type="curve"/>
      <point x="182" y="427" type="line"/>
      <point x="170" y="510" type="line"/>
      <point x="100" y="510" type="line"/>
    </contour>
  </outline>
</glyph>
<glyph name="s" format="2">
  <advance width="641"/>
  <unicode hex="0073"/>
  <anchor x="321" y="0" name="bottom"/>
  <anchor x="321" y="510" name="top"/>
  <outline>
    <contour>
      <point x="319" y="-8" type="curve" smooth="yes"/>
      <point x="516" y="-8"/>
      <point x="576" y="28"/>
      <point x="576" y="146" type="curve" smooth="yes"/>
      <point x="576" y="234"/>
      <point x="534" y="276"/>
      <point x="435" y="286" type="curve" smooth="yes"/>
      <point x="238" y="301" type="line" smooth="yes"/>
      <point x="161" y="307"/>
      <point x="147" y="317"/>
      <point x="147" y="367" type="curve" smooth="yes"/>
      <point x="147" y="435"/>
      <point x="175" y="448"/>
      <point x="323" y="448" type="curve" smooth="yes"/>
      <point x="396" y="448"/>
      <point x="480" y="443"/>
      <point x="546" y="435" type="curve"/>
      <point x="546" y="503" type="line"/>
      <point x="466" y="512"/>
      <point x="380" y="518"/>
      <point x="323" y="518" type="curve" smooth="yes"/>
      <point x="127" y="518"/>
      <point x="65" y="482"/>
      <point x="65" y="368" type="curve" smooth="yes"/>
      <point x="65" y="279"/>
      <point x="109" y="236"/>
      <point x="206" y="229" type="curve" smooth="yes"/>
      <point x="403" y="214" type="line" smooth="yes"/>
      <point x="481" y="208"/>
      <point x="494" y="198"/>
      <point x="494" y="146" type="curve" smooth="yes"/>
      <point x="494" y="76"/>
      <point x="466" y="62"/>
      <point x="325" y="62" type="curve" smooth="yes"/>
      <point x="242" y="62"/>
      <point x="142" y="67"/>
      <point x="72" y="75" type="curve"/>
      <point x="72" y="7" type="line"/>
      <point x="158" y="-2"/>
      <point x="255" y="-8"/>
    </contour>
  </outline>
</glyph>
<glyph name="t" format="2">
  <advance width="422"/>
  <unicode hex="0074"/>
  <anchor x="220" y="0" name="bottom"/>
  <anchor x="220" y="743" name="top"/>
  <outline>
    <contour>
      <point x="163" y="0" type="line"/>
      <point x="245" y="0" type="line"/>
      <point x="245" y="688" type="line"/>
      <point x="163" y="688" type="line"/>
    </contour>
    <contour>
      <point x="20" y="440" type="line"/>
      <point x="180" y="440" type="line"/>
      <point x="180" y="510" type="line"/>
      <point x="20" y="510" type="line"/>
    </contour>
    <contour>
      <point x="229" y="440" type="line"/>
      <point x="417" y="440" type="line"/>
      <point x="417" y="510" type="line"/>
      <point x="229" y="510" type="line"/>
    </contour>
  </outline>
</glyph>
<glyph name="u" format="2">
  <advance width="783"/>
  <unicode hex="0075"/>
  <anchor x="392" y="0" name="bottom"/>
  <anchor x="705" y="10" name="ogonek"/>
  <anchor x="392" y="510" name="top"/>
  <anchor x="763" y="510" name="topright"/>
  <outline>
    <contour>
      <point x="683" y="510" type="line"/>
      <point x="601" y="510" type="line"/>
      <point x="601" y="240" type="line" smooth="yes"/>
      <point x="601" y="93"/>
      <point x="559" y="62"/>
      <point x="368" y="62" type="curve" smooth="yes"/>
      <point x="205" y="62"/>
      <point x="177" y="80"/>
      <point x="177" y="178" type="curve" smooth="yes"/>
      <point x="177" y="510" type="line"/>
      <point x="95" y="510" type="line"/>
      <point x="95" y="166" type="line" smooth="yes"/>
      <point x="95" y="33"/>
      <point x="151" y="-8"/>
      <point x="338" y="-8" type="curve" smooth="yes"/>
      <point x="481" y="-8"/>
      <point x="561" y="18"/>
      <point x="597" y="78" type="curve"/>
      <point x="601" y="78" type="line"/>
      <point x="613" y="0" type="line"/>
      <point x="683" y="0" type="line"/>
    </contour>
  </outline>
</glyph>
<glyph name="v" format="2">
  <advance width="690"/>
  <unicode hex="0076"/>
  <anchor x="344" y="0" name="bottom"/>
  <anchor x="344" y="510" name="top"/>
  <outline>
    <contour>
      <point x="297" y="0" type="line"/>
      <point x="393" y="0" type="line"/>
      <point x="665" y="510" type="line"/>
      <point x="574" y="510" type="line"/>
      <point x="347" y="80" type="line"/>
      <point x="343" y="80" type="line"/>
      <point x="116" y="510" type="line"/>
      <point x="25" y="510" type="line"/>
    </contour>
  </outline>
</glyph>
<glyph name="w" format="2">
  <advance width="860"/>
  <unicode hex="0077"/>
  <anchor x="347" y="0" name="bottom"/>
  <anchor x="347" y="510" name="top"/>
  <outline>
    <contour>
      <point x="172" y="0" type="line"/>
      <point x="277" y="0" type="line"/>
      <point x="430" y="402" type="line"/>
      <point x="583" y="0" type="line"/>
      <point x="688" y="0" type="line"/>
      <point x="835" y="510" type="line"/>
      <point x="749" y="510" type="line"/>
      <point x="635" y="80" type="line"/>
      <point x="631" y="80" type="line"/>
      <point x="468" y="510" type="line"/>
      <point x="392" y="510" type="line"/>
      <point x="229" y="80" type="line"/>
      <point x="225" y="80" type="line"/>
      <point x="111" y="510" type="line"/>
      <point x="25" y="510" type="line"/>
    </contour>
  </outline>
</glyph>
<glyph name="x" format="2">
  <advance width="660"/>
  <unicode hex="0078"/>
  <anchor x="523" y="0" name="bottom"/>
  <anchor x="523" y="510" name="top"/>
  <outline>
    <contour>
      <point x="527" y="0" type="line"/>
      <point x="640" y="0" type="line"/>
      <point x="133" y="510" type="line"/>
      <point x="20" y="510" type="line"/>
    </contour>
    <contour>
      <point x="20" y="0" type="line"/>
      <point x="133" y="0" type="line"/>
      <point x="640" y="510" type="line"/>
      <point x="527" y="510" type="line"/>
    </contour>
  </outline>
</glyph>
<glyph name="y" format="2">
  <advance width="783"/>
  <unicode hex="0079"/>
  <anchor x="392" y="0" name="bottom"/>
  <anchor x="392" y="510" name="top"/>
  <outline>
    <contour>
      <point x="390" y="-208" type="curve" smooth="yes"/>
      <point x="647" y="-208"/>
      <point x="683" y="-165"/>
      <point x="683" y="71" type="curve" smooth="yes"/>
      <point x="683" y="510" type="line"/>
      <point x="601" y="510" type="line"/>
      <point x="601" y="244" type="line" smooth="yes"/>
      <point x="601" y="104"/>
      <point x="559" y="62"/>
      <point x="379" y="62" type="curve" smooth="yes"/>
      <point x="193" y="62"/>
      <point x="177" y="83"/>
      <point x="177" y="203" type="curve" smooth="yes"/>
      <point x="177" y="510" type="line"/>
      <point x="95" y="510" type="line"/>
      <point x="95" y="251" type="line" smooth="yes"/>
      <point x="95" y="31"/>
      <point x="124" y="-8"/>
      <point x="347" y="-8" type="curve" smooth="yes"/>
      <point x="491" y="-8"/>
      <point x="561" y="23"/>
      <point x="597" y="93" type="curve"/>
      <point x="601" y="93" type="line"/>
      <point x="601" y="51" type="line" smooth="yes"/>
      <point x="601" y="-124"/>
      <point x="587" y="-138"/>
      <point x="388" y="-138" type="curve" smooth="yes"/>
      <point x="301" y="-138"/>
      <point x="200" y="-131"/>
      <point x="127" y="-120" type="curve"/>
      <point x="127" y="-188" type="line"/>
      <point x="189" y="-200"/>
      <point x="291" y="-208"/>
    </contour>
  </outline>
</glyph>
<glyph name="z" format="2">
  <advance width="564"/>
  <unicode hex="007A"/>
  <anchor x="345" y="0" name="bottom"/>
  <anchor x="339" y="255" name="center"/>
  <anchor x="345" y="510" name="top"/>
  <outline>
    <contour>
      <point x="25" y="0" type="line"/>
      <point x="539" y="0" type="line"/>
      <point x="539" y="70" type="line"/>
      <point x="146" y="70" type="line"/>
      <point x="146" y="74" type="line"/>
      <point x="537" y="447" type="line"/>
      <point x="537" y="510" type="line"/>
      <point x="37" y="510" type="line"/>
      <point x="37" y="440" type="line"/>
      <point x="416" y="440" type="line"/>
      <point x="416" y="436" type="line"/>
      <point x="25" y="63" type="line"/>
    </contour>
  </outline>
</glyph>
<glyph name="cent" format="2">
  <advance width="467.54348"/>
  <unicode hex="00A2"/>
  <outline>
    <contour>
      <point x="269.043" y="67.457" type="curve" smooth="yes"/>
      <point x="337.152" y="67.457"/>
      <point x="379.109" y="71.826"/>
      <point x="415.261" y="81.087" type="curve"/>
      <point x="415.261" y="150.783" type="line"/>
      <point x="384.348" y="143.957"/>
      <point x="331.783" y="139.043"/>
      <point x="294.587" y="139.043" type="curve" smooth="yes"/>
      <point x="173.239" y="140.413"/>
      <point x="151.13" y="166.609"/>
      <point x="151.13" y="342.913" type="curve" smooth="yes"/>
      <point x="151.13" y="516.217"/>
      <point x="171.435" y="545.5"/>
      <point x="292.13" y="546.413" type="curve" smooth="yes"/>
      <point x="331.152" y="546.87"/>
      <point x="380.348" y="542.413"/>
      <point x="410.804" y="536.043" type="curve"/>
      <point x="410.804" y="604.826" type="line"/>
      <point x="367.826" y="615.174"/>
      <point x="318.826" y="618.457"/>
      <point x="269.848" y="618.457" type="curve" smooth="yes"/>
      <point x="110.152" y="618.457"/>
      <point x="65.217" y="544.326"/>
      <point x="65.217" y="342" type="curve" smooth="yes"/>
      <point x="65.217" y="152.065"/>
      <point x="92.957" y="68.37"/>
    </contour>
    <contour>
      <point x="247.413" y="-8" type="line"/>
      <point x="310.761" y="-8" type="line"/>
      <point x="310.761" y="106.304" type="line"/>
      <point x="247.413" y="106.304" type="line"/>
    </contour>
    <contour>
      <point x="247.413" y="578.261" type="line"/>
      <point x="310.761" y="578.261" type="line"/>
      <point x="310.761" y="696" type="line"/>
      <point x="247.413" y="696" type="line"/>
    </contour>
  </outline>
</glyph>
<glyph name="hbar" format="2">
  <advance width="598.56522"/>
  <unicode hex="0127"/>
  <outline>
    <contour>
      <point x="19.587" y="632.63" type="line"/>
      <point x="303.935" y="632.63" type="line"/>
      <point x="303.935" y="688" type="line"/>
      <point x="19.587" y="688" type="line"/>
    </contour>
    <component base="h"/>
  </outline>
</glyph>
<glyph name="caron" format="2">
  <advance width="289.34783"/>
  <unicode hex="02C7"/>
  <outline>
    <contour>
      <point x="101.565" y="594.587" type="line"/>
      <point x="187.239" y="594.587" type="line"/>
      <point x="289.348" y="728.761" type="line"/>
      <point x="289.348" y="734.848" type="line"/>
      <point x="233" y="734.848" type="line"/>
      <point x="144.13" y="638.174" type="line"/>
      <point x="55.804" y="734.848" type="line"/>
      <point x="0" y="734.848" type="line"/>
      <point x="0" y="728.761" type="line"/>
    </contour>
  </outline>
</glyph>
<glyph name="cedillacomb" format="2">
  <advance width="123.5"/>
  <unicode hex="0327"/>
  <anchor x="91.826" y="0" name="_bottom"/>
  <anchor x="91.826" y="-190" name="bottom"/>
  <outline>
    <contour>
      <point x="0" y="-190" type="line"/>
      <point x="80.761" y="-190" type="line"/>
      <point x="123.5" y="13" type="line"/>
      <point x="123.5" y="18" type="line"/>
      <point x="68.152" y="18" type="line"/>
      <point x="0" y="-185" type="line"/>
    </contour>
  </outline>
</glyph>
<glyph name="naira" format="2">
  <advance width="731.47826"/>
  <unicode hex="20A6"/>
  <outline>
    <contour>
      <point x="12.565" y="324.761" type="line"/>
      <point x="718.457" y="324.761" type="line"/>
      <point x="718.457" y="378.043" type="line"/>
      <point x="12.565" y="378.043" type="line"/>
    </contour>
    <component base="N"/>
  </outline>
</glyph>
<glyph name="leftanglebracket-math" format="2">
  <advance width="285.56522"/>
  <unicode hex="27E8"/>
  <outline>
    <contour>
      <point x="182.565" y="-62" type="line"/>
      <point x="258.065" y="-62" type="line"/>
      <point x="110.065" y="344" type="line"/>
      <point x="258.065" y="750" type="line"/>
      <point x="182.565" y="750" type="line"/>
      <point x="34.565" y="344" type="line"/>
    </contour>
  </outline>
</glyph>
<glyph name="C.001" format="2">
  <advance width="793"/>
  <anchor x="375" y="0" name="bottom"/>
  <anchor x="375" y="688" name="top"/>
  <outline>
    <contour>
      <point x="444" y="-8" type="curve" smooth="yes"/>
      <point x="530" y="-8"/>
      <point x="631" y="-1"/>
      <point x="698" y="10" type="curve"/>
      <point x="698" y="81" type="line"/>
      <point x="643" y="71"/>
      <point x="554" y="66"/>
      <point x="444" y="66" type="curve" smooth="yes"/>
      <point x="174" y="66"/>
      <point x="152" y="84"/>
      <point x="152" y="310" type="curve" smooth="yes"/>
      <point x="152" y="378" type="line" smooth="yes"/>
      <point x="152" y="601"/>
      <point x="178" y="622"/>
      <point x="444" y="622" type="curve" smooth="yes"/>
      <point x="547" y="622"/>
      <point x="634" y="617"/>
      <point x="693" y="607" type="curve"/>
      <point x="693" y="676" type="line"/>
      <point x="627" y="688"/>
      <point x="525" y="696"/>
      <point x="444" y="696" type="curve" smooth="yes"/>
      <point x="129" y="696"/>
      <point x="70" y="643"/>
      <point x="70" y="349" type="curve" smooth="yes"/>
      <point x="70" y="339" type="line" smooth="yes"/>
      <point x="70" y="43"/>
      <point x="124" y="-8"/>
    </contour>
  </outline>
</glyph>
<glyph name="M.001" format="2">
  <advance width="970"/>
  <anchor x="485" y="0" name="bottom"/>
  <anchor x="485" y="688" name="top"/>
  <outline>
    <contour>
      <point x="100" y="0" type="line"/>
      <point x="182" y="0" type="line"/>
      <point x="182" y="560" type="line"/>
      <point x="186" y="560" type="line"/>
      <point x="449" y="0" type="line"/>
      <point x="522" y="0" type="line"/>
      <point x="784" y="560" type="line"/>
      <point x="788" y="560" type="line"/>
      <point x="788" y="0" type="line"/>
      <point x="870" y="0" type="line"/>
      <point x="870" y="688" type="line"/>
      <point x="756" y="688" type="line"/>
      <point x="487" y="110" type="line"/>
      <point x="483" y="110" type="line"/>
      <point x="214" y="688" type="line"/>
      <point x="100" y="688" type="line"/>
    </contour>
  </outline>
</glyph>
<glyph name="Y.001" format="2">
  <advance width="732"/>
  <anchor x="366" y="0" name="bottom"/>
  <anchor x="366" y="688" name="top"/>
  <anchor x="4" y="688" name="topleft"/>
  <outline>
    <contour>
      <point x="325" y="0" type="line"/>
      <point x="407" y="0" type="line"/>
      <point x="407" y="289" type="line"/>
      <point x="399" y="255" type="line"/>
      <point x="722" y="688" type="line"/>
      <point x="621" y="688" type="line"/>
      <point x="368" y="346" type="line"/>
      <point x="364" y="346" type="line"/>
      <point x="111" y="688" type="line"/>
      <point x="10" y="688" type="line"/>
      <point x="333" y="255" type="line"/>
      <point x="325" y="289" type="line"/>
    </contour>
  </outline>
</glyph>
<glyph name="Z.001" format="2">
  <advance width="681"/>
  <anchor x="306" y="0" name="bottom"/>
  <anchor x="306" y="344" name="center"/>
  <anchor x="306" y="688" name="top"/>
  <outline>
    <contour>
      <point x="50" y="0" type="line"/>
      <point x="631" y="0" type="line"/>
      <point x="631" y="74" type="line"/>
      <point x="141" y="74" type="line"/>
      <point x="623" y="622" type="line"/>
      <point x="623" y="688" type="line"/>
      <point x="64" y="688" type="line"/>
      <point x="64" y="614" type="line"/>
      <point x="532" y="614" type="line"/>
      <point x="50" y="66" type="line"/>
    </contour>
  </outline>
</glyph>
<glyph name="_tail.Q" format="2">
  <advance width="167"/>
  <anchor x="61" y="10" name="_bottom"/>
  <outline>
    <contour>
      <point x="20" y="10" type="line"/>
      <point x="65" y="-146" type="line"/>
      <point x="147" y="-146" type="line"/>
      <point x="102" y="10" type="line"/>
    </contour>
  </outline>
</glyph>
<glyph name="a.001" format="2">
  <advance width="736"/>
  <anchor x="513" y="0" name="bottom"/>
  <anchor x="747" y="10" name="ogonek"/>
  <anchor x="513" y="510" name="top"/>
  <outline>
    <contour>
      <point x="276" y="-8" type="curve" smooth="yes"/>
      <point x="431" y="-8"/>
      <point x="517" y="17"/>
      <point x="558" y="73" type="curve"/>
      <point x="562" y="73" type="line"/>
      <point x="571" y="0" type="line"/>
      <point x="641" y="0" type="line"/>
      <point x="641" y="259" type="line" smooth="yes"/>
      <point x="641" y="479"/>
      <point x="597" y="518"/>
      <point x="351" y="518" type="curve" smooth="yes"/>
      <point x="256" y="518"/>
      <point x="148" y="510"/>
      <point x="88" y="498" type="curve"/>
      <point x="88" y="430" type="line"/>
      <point x="158" y="441"/>
      <point x="266" y="448"/>
      <point x="350" y="448" type="curve" smooth="yes"/>
      <point x="537" y="448"/>
      <point x="559" y="436"/>
      <point x="559" y="279" type="curve" smooth="yes"/>
      <point x="559" y="244" type="line" smooth="yes"/>
      <point x="559" y="102"/>
      <point x="502" y="62"/>
      <point x="288" y="62" type="curve" smooth="yes"/>
      <point x="173" y="62"/>
      <point x="145" y="79"/>
      <point x="145" y="149" type="curve" smooth="yes"/>
      <point x="145" y="219"/>
      <point x="173" y="235"/>
      <point x="288" y="235" type="curve" smooth="yes"/>
      <point x="603" y="235" type="line"/>
      <point x="603" y="305" type="line"/>
      <point x="276" y="305" type="line" smooth="yes"/>
      <point x="117" y="305"/>
      <point x="63" y="265"/>
      <point x="63" y="149" type="curve" smooth="yes"/>
      <point x="63" y="33"/>
      <point x="117" y="-8"/>
    </contour>
  </outline>
</glyph>
<glyph name="bullet.ss02" format="2">
  <advance width="783"/>
  <outline>
    <contour>
      <point x="392" y="421" type="curve" smooth="yes"/>
      <point x="454" y="421"/>
      <point x="504" y="460"/>
      <point x="504" y="533" type="curve" smooth="yes"/>
      <point x="504" y="623"/>
      <point x="428" y="696"/>
      <point x="392" y="696" type="curve" smooth="yes"/>
      <point x="355" y="696"/>
      <point x="279" y="623"/>
      <point x="279" y="533" type="curve" smooth="yes"/>
      <point x="279" y="460"/>
      <point x="329" y="421"/>
    </contour>
    <contour>
      <point x="392" y="-8" type="curve" smooth="yes"/>
      <point x="428" y="-8"/>
      <point x="504" y="65"/>
      <point x="504" y="155" type="curve" smooth="yes"/>
      <point x="504" y="228"/>
      <point x="454" y="267"/>
      <point x="392" y="267" type="curve" smooth="yes"/>
      <point x="329" y="267"/>
      <point x="279" y="228"/>
      <point x="279" y="155" type="curve" smooth="yes"/>
      <point x="279" y="65"/>
      <point x="355" y="-8"/>
    </contour>
    <contour>
      <point x="392" y="52" type="curve" smooth="yes"/>
      <point x="375" y="52"/>
      <point x="339" y="98"/>
      <point x="339" y="155" type="curve" smooth="yes"/>
      <point x="339" y="189"/>
      <point x="362" y="207"/>
      <point x="392" y="207" type="curve" smooth="yes"/>
      <point x="421" y="207"/>
      <point x="444" y="189"/>
      <point x="444" y="155" type="curve" smooth="yes"/>
      <point x="444" y="98"/>
      <point x="409" y="52"/>
    </contour>
    <contour>
      <point x="203" y="231" type="curve" smooth="yes"/>
      <point x="276" y="231"/>
      <point x="315" y="281"/>
      <point x="315" y="344" type="curve" smooth="yes"/>
      <point x="315" y="406"/>
      <point x="276" y="456"/>
      <point x="203" y="456" type="curve" smooth="yes"/>
      <point x="113" y="456"/>
      <point x="40" y="380"/>
      <point x="40" y="344" type="curve" smooth="yes"/>
      <point x="40" y="307"/>
      <point x="113" y="231"/>
    </contour>
    <contour>
      <point x="203" y="291" type="curve" smooth="yes"/>
      <point x="146" y="291"/>
      <point x="100" y="327"/>
      <point x="100" y="344" type="curve" smooth="yes"/>
      <point x="100" y="361"/>
      <point x="146" y="396"/>
      <point x="203" y="396" type="curve" smooth="yes"/>
      <point x="237" y="396"/>
      <point x="255" y="373"/>
      <point x="255" y="344" type="curve" smooth="yes"/>
      <point x="255" y="314"/>
      <point x="237" y="291"/>
    </contour>
    <contour>
      <point x="581" y="231" type="curve" smooth="yes"/>
      <point x="670" y="231"/>
      <point x="743" y="307"/>
      <point x="743" y="344" type="curve" smooth="yes"/>
      <point x="743" y="380"/>
      <point x="670" y="456"/>
      <point x="581" y="456" type="curve" smooth="yes"/>
      <point x="507" y="456"/>
      <point x="468" y="406"/>
      <point x="468" y="344" type="curve" smooth="yes"/>
      <point x="468" y="281"/>
      <point x="507" y="231"/>
    </contour>
    <contour>
      <point x="581" y="291" type="curve" smooth="yes"/>
      <point x="546" y="291"/>
      <point x="528" y="314"/>
      <point x="528" y="344" type="curve" smooth="yes"/>
      <point x="528" y="373"/>
      <point x="546" y="396"/>
      <point x="581" y="396" type="curve" smooth="yes"/>
      <point x="637" y="396"/>
      <point x="683" y="361"/>
      <point x="683" y="344" type="curve" smooth="yes"/>
      <point x="683" y="327"/>
      <point x="637" y="291"/>
    </contour>
    <contour>
      <point x="392" y="481" type="curve" smooth="yes"/>
      <point x="362" y="481"/>
      <point x="339" y="499"/>
      <point x="339" y="533" type="curve" smooth="yes"/>
      <point x="339" y="590"/>
      <point x="375" y="636"/>
      <point x="392" y="636" type="curve" smooth="yes"/>
      <point x="409" y="636"/>
      <point x="444" y="590"/>
      <point x="444" y="533" type="curve" smooth="yes"/>
      <point x="444" y="499"/>
      <point x="421" y="481"/>
    </contour>
  </outline>
</glyph>
<glyph name="c.003" format="2">
  <advance width="622"/>
  <anchor x="311" y="0" name="bottom"/>
  <anchor x="311" y="510" name="top"/>
  <outline>
    <contour>
      <point x="359" y="-8" type="curve" smooth="yes"/>
      <point x="437" y="-8"/>
      <point x="527" y="-2"/>
      <point x="580" y="7" type="curve"/>
      <point x="580" y="75" type="line"/>
      <point x="525" y="67"/>
      <point x="432" y="62"/>
      <point x="359" y="62" type="curve" smooth="yes"/>
      <point x="166" y="62"/>
      <point x="152" y="74"/>
      <point x="152" y="231" type="curve" smooth="yes"/>
      <point x="152" y="279" type="line" smooth="yes"/>
      <point x="152" y="436"/>
      <point x="166" y="448"/>
      <point x="359" y="448" type="curve" smooth="yes"/>
      <point x="430" y="448"/>
      <point x="521" y="443"/>
      <point x="575" y="435" type="curve"/>
      <point x="575" y="503" type="line"/>
      <point x="523" y="512"/>
      <point x="435" y="518"/>
      <point x="359" y="518" type="curve" smooth="yes"/>
      <point x="113" y="518"/>
      <point x="70" y="479"/>
      <point x="70" y="259" type="curve" smooth="yes"/>
      <point x="70" y="251" type="line" smooth="yes"/>
      <point x="70" y="31"/>
      <point x="113" y="-8"/>
    </contour>
  </outline>
</glyph>
<glyph name="n.001" format="2">
  <advance width="752"/>
  <anchor x="375" y="0" name="bottom"/>
  <anchor x="375" y="510" name="top"/>
  <outline>
    <contour>
      <point x="84" y="0" type="line"/>
      <point x="166" y="0" type="line"/>
      <point x="166" y="266" type="line" smooth="yes"/>
      <point x="166" y="415"/>
      <point x="227" y="448"/>
      <point x="415" y="448" type="curve" smooth="yes"/>
      <point x="559" y="448"/>
      <point x="590" y="427"/>
      <point x="590" y="304" type="curve" smooth="yes"/>
      <point x="590" y="0" type="line"/>
      <point x="672" y="0" type="line"/>
      <point x="672" y="319" type="line" smooth="yes"/>
      <point x="672" y="466"/>
      <point x="611" y="518"/>
      <point x="437" y="518" type="curve" smooth="yes"/>
      <point x="290" y="518"/>
      <point x="207" y="493"/>
      <point x="170" y="437" type="curve"/>
      <point x="166" y="437" type="line"/>
      <point x="155" y="510" type="line"/>
      <point x="84" y="510" type="line"/>
    </contour>
  </outline>
</glyph>
<glyph name="o.002" format="2">
  <advance width="748"/>
  <anchor x="369" y="0" name="bottom"/>
  <anchor x="369" y="255" name="center"/>
  <anchor x="691" y="10" name="ogonek"/>
  <anchor x="369" y="510" name="top"/>
  <anchor x="744" y="510" name="topright"/>
  <outline>
    <contour>
      <point x="369" y="-8" type="curve" smooth="yes"/>
      <point x="619" y="-8"/>
      <point x="673" y="31"/>
      <point x="673" y="251" type="curve" smooth="yes"/>
      <point x="673" y="259" type="line" smooth="yes"/>
      <point x="673" y="479"/>
      <point x="619" y="518"/>
      <point x="369" y="518" type="curve" smooth="yes"/>
      <point x="119" y="518"/>
      <point x="75" y="479"/>
      <point x="75" y="259" type="curve" smooth="yes"/>
      <point x="75" y="251" type="line" smooth="yes"/>
      <point x="75" y="31"/>
      <point x="119" y="-8"/>
    </contour>
    <contour>
      <point x="369" y="62" type="curve" smooth="yes"/>
      <point x="185" y="62"/>
      <point x="157" y="84"/>
      <point x="157" y="231" type="curve" smooth="yes"/>
      <point x="157" y="279" type="line" smooth="yes"/>
      <point x="157" y="426"/>
      <point x="185" y="448"/>
      <point x="369" y="448" type="curve" smooth="yes"/>
      <point x="553" y="448"/>
      <point x="591" y="426"/>
      <point x="591" y="279" type="curve" smooth="yes"/>
      <point x="591" y="231" type="line" smooth="yes"/>
      <point x="591" y="84"/>
      <point x="553" y="62"/>
    </contour>
  </outline>
</glyph>
<glyph name="one.tf" format="2">
  <advance width="620"/>
  <outline>
    <contour>
      <point x="96.217" y="0" type="line"/>
      <point x="563.696" y="0" type="line"/>
      <point x="563.696" y="74.217" type="line"/>
      <point x="380" y="74.217" type="line"/>
      <point x="380" y="688" type="line"/>
      <point x="319.478" y="688" type="line"/>
      <point x="101.674" y="584.261" type="line"/>
      <point x="101.674" y="509.587" type="line"/>
      <point x="294" y="591.283" type="line"/>
      <point x="294" y="74.217" type="line"/>
      <point x="96.217" y="74.217" type="line"/>
    </contour>
  </outline>
</glyph>
<glyph name="orn.001" format="2">
  <advance width="337"/>
  <outline>
    <contour>
      <point x="166" y="223" type="curve" smooth="yes"/>
      <point x="283" y="223"/>
      <point x="289" y="239"/>
      <point x="289" y="341" type="curve" smooth="yes"/>
      <point x="289" y="446"/>
      <point x="283" y="463"/>
      <point x="166" y="463" type="curve" smooth="yes"/>
      <point x="54" y="463"/>
      <point x="48" y="446"/>
      <point x="48" y="341" type="curve" smooth="yes"/>
      <point x="48" y="239"/>
      <point x="54" y="223"/>
    </contour>
  </outline>
</glyph>
<glyph name="s.002" format="2">
  <advance width="641"/>
  <anchor x="321" y="0" name="bottom"/>
  <anchor x="321" y="510" name="top"/>
  <outline>
    <contour>
      <point x="306" y="-8" type="curve" smooth="yes"/>
      <point x="522" y="-8"/>
      <point x="576" y="23"/>
      <point x="576" y="146" type="curve" smooth="yes"/>
      <point x="576" y="241"/>
      <point x="535" y="275"/>
      <point x="407" y="286" type="curve" smooth="yes"/>
      <point x="235" y="300" type="line" smooth="yes"/>
      <point x="160" y="306"/>
      <point x="147" y="317"/>
      <point x="147" y="371" type="curve" smooth="yes"/>
      <point x="147" y="438"/>
      <point x="174" y="449"/>
      <point x="332" y="449" type="curve" smooth="yes"/>
      <point x="400" y="449"/>
      <point x="484" y="444"/>
      <point x="545" y="436" type="curve"/>
      <point x="545" y="504" type="line"/>
      <point x="470" y="513"/>
      <point x="381" y="519"/>
      <point x="321" y="519" type="curve" smooth="yes"/>
      <point x="122" y="519"/>
      <point x="65" y="486"/>
      <point x="65" y="371" type="curve" smooth="yes"/>
      <point x="65" y="277"/>
      <point x="108" y="240"/>
      <point x="231" y="230" type="curve" smooth="yes"/>
      <point x="403" y="216" type="line" smooth="yes"/>
      <point x="484" y="209"/>
      <point x="494" y="201"/>
      <point x="494" y="146" type="curve" smooth="yes"/>
      <point x="494" y="75"/>
      <point x="466" y="62"/>
      <point x="309" y="62" type="curve" smooth="yes"/>
      <point x="234" y="62"/>
      <point x="141" y="67"/>
      <point x="72" y="75" type="curve"/>
      <point x="72" y="7" type="line"/>
      <point x="149" y="-2"/>
      <point x="243" y="-8"/>
    </contour>
  </outline>
</glyph>
<glyph name="six.numr" format="2">
  <advance width="378"/>
  <outline>
    <contour>
      <point x="200.826" y="304" type="curve" smooth="yes"/>
      <point x="321.913" y="304"/>
      <point x="346.087" y="332.348"/>
      <point x="346.087" y="429.261" type="curve" smooth="yes"/>
      <point x="346.087" y="524.348"/>
      <point x="307.37" y="536.978"/>
      <point x="214.978" y="536.978" type="curve" smooth="yes"/>
      <point x="142.674" y="536.978"/>
      <point x="119.848" y="521.891"/>
      <point x="109.022" y="510.522" type="curve"/>
      <point x="105.022" y="510.522" type="line"/>
      <point x="105.022" y="622.587"/>
      <point x="116.935" y="640.326"/>
      <point x="217.174" y="640.326" type="curve" smooth="yes"/>
      <point x="243.457" y="640.326"/>
      <point x="286.37" y="637.326"/>
      <point x="324.543" y="634.326" type="curve"/>
      <point x="324.543" y="680" type="line"/>
      <point x="284" y="686.087"/>
      <point x="235.37" y="690.087"/>
      <point x="205.826" y="690.087" type="curve" smooth="yes"/>
      <point x="118.739" y="690.087"/>
      <point x="74.739" y="675.457"/>
      <point x="56.196" y="617" type="curve" smooth="yes"/>
      <point x="46.652" y="587.543"/>
      <point x="44.109" y="547.543"/>
      <point x="44.109" y="493.63" type="curve" smooth="yes"/>
      <point x="44.109" y="440.913"/>
      <point x="46.196" y="402.283"/>
      <point x="52.739" y="377.826" type="curve" smooth="yes"/>
      <point x="71.37" y="311.543"/>
      <point x="115.37" y="304"/>
    </contour>
    <contour>
      <point x="197.37" y="352.217" type="curve" smooth="yes"/>
      <point x="126.674" y="352.217"/>
      <point x="107.022" y="358.043"/>
      <point x="107.022" y="431.457" type="curve" smooth="yes"/>
      <point x="107.022" y="474.935"/>
      <point x="114.391" y="488.761"/>
      <point x="197.37" y="488.761" type="curve" smooth="yes"/>
      <point x="273.065" y="488.761"/>
      <point x="287.804" y="484.304"/>
      <point x="287.804" y="419.261" type="curve" smooth="yes"/>
      <point x="287.804" y="355.674"/>
      <point x="270.609" y="352.217"/>
    </contour>
  </outline>
</glyph>
<glyph name="six.ss01" format="2">
  <advance width="656.1087"/>
  <outline>
    <contour>
      <point x="328.739" y="-8" type="curve" smooth="yes"/>
      <point x="542.13" y="-8"/>
      <point x="594.152" y="57.043"/>
      <point x="594.152" y="202.522" type="curve" smooth="yes"/>
      <point x="594.152" y="352.674"/>
      <point x="552.565" y="411.043"/>
      <point x="370.848" y="411.043" type="curve" smooth="yes"/>
      <point x="271.283" y="411.043"/>
      <point x="223.087" y="401.304"/>
      <point x="190.826" y="378.739" type="curve"/>
      <point x="185.913" y="380.283" type="line"/>
      <point x="241.217" y="501.304"/>
      <point x="349.848" y="603.391"/>
      <point x="452.587" y="681.913" type="curve"/>
      <point x="452.587" y="688" type="line"/>
      <point x="346.891" y="688" type="line"/>
      <point x="212.652" y="586.435"/>
      <point x="61.413" y="414.783"/>
      <point x="61.413" y="221.326" type="curve" smooth="yes"/>
      <point x="61.413" y="49.283"/>
      <point x="115.261" y="-8"/>
    </contour>
    <contour>
      <point x="327.826" y="65.674" type="curve" smooth="yes"/>
      <point x="193.717" y="65.674"/>
      <point x="148.5" y="76.696"/>
      <point x="148.5" y="216.63" type="curve" smooth="yes"/>
      <point x="148.5" y="318"/>
      <point x="199.022" y="337.913"/>
      <point x="327.826" y="337.913" type="curve" smooth="yes"/>
      <point x="462.087" y="337.913"/>
      <point x="509.783" y="335.739"/>
      <point x="509.783" y="201.522" type="curve" smooth="yes"/>
      <point x="509.783" y="90.435"/>
      <point x="472.935" y="65.674"/>
    </contour>
  </outline>
</glyph>
<glyph name="two.dnom" format="2">
  <advance width="356.28261"/>
  <outline>
    <contour>
      <point x="40.652" y="0" type="line"/>
      <point x="314.543" y="0" type="line"/>
      <point x="314.543" y="50.304" type="line"/>
      <point x="100.478" y="50.304" type="line"/>
      <point x="100.478" y="79.391" type="line" smooth="yes"/>
      <point x="100.478" y="114.826"/>
      <point x="102.478" y="120.913"/>
      <point x="124.587" y="129.739" type="curve" smooth="yes"/>
      <point x="241.457" y="175.848" type="line" smooth="yes"/>
      <point x="294.37" y="196.848"/>
      <point x="314.543" y="219.022"/>
      <point x="314.543" y="282.739" type="curve" smooth="yes"/>
      <point x="314.543" y="374.913"/>
      <point x="253.913" y="382.087"/>
      <point x="180.37" y="382.087" type="curve" smooth="yes"/>
      <point x="136.826" y="382.087"/>
      <point x="82.283" y="377.543"/>
      <point x="48.652" y="372" type="curve"/>
      <point x="48.652" y="325.783" type="line"/>
      <point x="88.739" y="330.326"/>
      <point x="136.565" y="332.326"/>
      <point x="163.935" y="332.326" type="curve" smooth="yes"/>
      <point x="234.891" y="332.326"/>
      <point x="253.63" y="326.5"/>
      <point x="253.63" y="277.739" type="curve" smooth="yes"/>
      <point x="253.63" y="241.63"/>
      <point x="250.348" y="236.261"/>
      <point x="209.152" y="219.891" type="curve" smooth="yes"/>
      <point x="104.478" y="178.696" type="line" smooth="yes"/>
      <point x="41.652" y="154.239"/>
      <point x="40.652" y="130.804"/>
      <point x="40.652" y="46.348" type="curve" smooth="yes"/>
    </contour>
  </outline>
</glyph>
<glyph name="v.001" format="2">
  <advance width="694"/>
  <anchor x="346" y="0" name="bottom"/>
  <anchor x="346" y="510" name="top"/>
  <outline>
    <contour>
      <point x="308" y="0" type="line"/>
      <point x="386" y="0" type="line"/>
      <point x="667" y="510" type="line"/>
      <point x="576" y="510" type="line"/>
      <point x="349" y="85" type="line"/>
      <point x="345" y="85" type="line"/>
      <point x="118" y="510" type="line"/>
      <point x="27" y="510" type="line"/>
    </contour>
  </outline>
</glyph>
